<mxfile host="app.diagrams.net" agent="Mozilla/5.0 (Windows NT 10.0; Win64; x64) AppleWebKit/537.36 (KHTML, like Gecko) Chrome/134.0.0.0 Safari/537.36 Edg/134.0.0.0" version="26.1.0">
  <diagram name="第 1 页" id="MXORGOUd-GkvtJ-RmZ2l">
    <mxGraphModel dx="778" dy="514" grid="1" gridSize="10" guides="1" tooltips="1" connect="1" arrows="1" fold="1" page="1" pageScale="1" pageWidth="827" pageHeight="1169" math="0" shadow="0">
      <root>
        <mxCell id="0" />
        <mxCell id="1" parent="0" />
        <mxCell id="RUnobG6nn0BxNbAFJMlj-1" value="学生" style="shape=umlActor;verticalLabelPosition=bottom;verticalAlign=top;html=1;" vertex="1" parent="1">
          <mxGeometry x="614" y="310" width="30" height="60" as="geometry" />
        </mxCell>
        <mxCell id="RUnobG6nn0BxNbAFJMlj-4" value="教职工" style="shape=umlActor;verticalLabelPosition=bottom;verticalAlign=top;html=1;" vertex="1" parent="1">
          <mxGeometry x="614" y="430" width="30" height="60" as="geometry" />
        </mxCell>
        <mxCell id="RUnobG6nn0BxNbAFJMlj-5" value="" style="endArrow=block;endFill=0;html=1;rounded=0;" edge="1" parent="1">
          <mxGeometry width="160" relative="1" as="geometry">
            <mxPoint x="610" y="340" as="sourcePoint" />
            <mxPoint x="510" y="390" as="targetPoint" />
          </mxGeometry>
        </mxCell>
        <mxCell id="RUnobG6nn0BxNbAFJMlj-7" value="" style="endArrow=block;endFill=0;html=1;rounded=0;" edge="1" parent="1">
          <mxGeometry width="160" relative="1" as="geometry">
            <mxPoint x="610" y="460" as="sourcePoint" />
            <mxPoint x="510" y="430" as="targetPoint" />
          </mxGeometry>
        </mxCell>
        <mxCell id="RUnobG6nn0BxNbAFJMlj-10" value="用户" style="shape=umlActor;verticalLabelPosition=bottom;verticalAlign=top;html=1;" vertex="1" parent="1">
          <mxGeometry x="470" y="380" width="30" height="60" as="geometry" />
        </mxCell>
        <mxCell id="RUnobG6nn0BxNbAFJMlj-12" value="" style="endArrow=none;html=1;rounded=0;" edge="1" parent="1">
          <mxGeometry width="50" height="50" relative="1" as="geometry">
            <mxPoint x="470" y="390" as="sourcePoint" />
            <mxPoint x="400" y="340" as="targetPoint" />
          </mxGeometry>
        </mxCell>
        <mxCell id="RUnobG6nn0BxNbAFJMlj-13" value="" style="endArrow=none;html=1;rounded=0;" edge="1" parent="1">
          <mxGeometry width="50" height="50" relative="1" as="geometry">
            <mxPoint x="470" y="432.3529411764706" as="sourcePoint" />
            <mxPoint x="400" y="480" as="targetPoint" />
          </mxGeometry>
        </mxCell>
        <mxCell id="RUnobG6nn0BxNbAFJMlj-14" value="&lt;div style=&quot;line-height: 1.3; vertical-align: middle; color: rgb(25, 25, 26); font-size: 14px;&quot;&gt;&lt;p&gt;本地添加信息来源&lt;/p&gt;&lt;/div&gt;" style="ellipse;whiteSpace=wrap;html=1;fontFamily=Helvetica;" vertex="1" parent="1">
          <mxGeometry x="320" y="287.33" width="94" height="62.67" as="geometry" />
        </mxCell>
        <mxCell id="RUnobG6nn0BxNbAFJMlj-15" value="&lt;div style=&quot;line-height: 1.3; vertical-align: middle; color: rgb(25, 25, 26); font-size: 14px;&quot;&gt;&lt;div style=&quot;line-height: 1.3; vertical-align: middle;&quot;&gt;&lt;p&gt;搜索通知&lt;/p&gt;&lt;/div&gt;&lt;/div&gt;" style="ellipse;whiteSpace=wrap;html=1;fontFamily=Helvetica;" vertex="1" parent="1">
          <mxGeometry x="320" y="470" width="94" height="62.67" as="geometry" />
        </mxCell>
        <mxCell id="RUnobG6nn0BxNbAFJMlj-16" value="&lt;div style=&quot;line-height: 1.3; font-family: &amp;quot;Source Han Sans CN&amp;quot;; vertical-align: middle; color: rgb(25, 25, 26); font-size: 14px;&quot;&gt;&lt;div style=&quot;line-height: 1.3; vertical-align: middle;&quot;&gt;&lt;p&gt;申请添加新的默认&lt;span style=&quot;font-family: Helvetica; color: light-dark(rgb(25, 25, 26), rgb(216, 216, 217)); background-color: transparent;&quot;&gt;信息来源&lt;/span&gt;&lt;/p&gt;&lt;/div&gt;&lt;/div&gt;" style="ellipse;whiteSpace=wrap;html=1;" vertex="1" parent="1">
          <mxGeometry x="480" y="190" width="94" height="62.67" as="geometry" />
        </mxCell>
        <mxCell id="RUnobG6nn0BxNbAFJMlj-17" value="&amp;lt;&amp;lt;extend&amp;gt;&amp;gt;" style="html=1;verticalAlign=bottom;labelBackgroundColor=none;endArrow=open;endFill=0;dashed=1;rounded=0;exitX=0;exitY=1;exitDx=0;exitDy=0;entryX=0.922;entryY=0.206;entryDx=0;entryDy=0;entryPerimeter=0;" edge="1" parent="1" source="RUnobG6nn0BxNbAFJMlj-16" target="RUnobG6nn0BxNbAFJMlj-14">
          <mxGeometry x="0.1459" y="-7" width="160" relative="1" as="geometry">
            <mxPoint x="440" y="290" as="sourcePoint" />
            <mxPoint x="600" y="290" as="targetPoint" />
            <mxPoint as="offset" />
          </mxGeometry>
        </mxCell>
        <mxCell id="RUnobG6nn0BxNbAFJMlj-19" value="&lt;div style=&quot;line-height: 1.3; vertical-align: middle; color: rgb(25, 25, 26); font-size: 14px;&quot;&gt;&lt;div style=&quot;line-height: 1.3; vertical-align: middle;&quot;&gt;&lt;div style=&quot;line-height: 1.3; vertical-align: middle;&quot;&gt;&lt;p&gt;测试网络环境，检测信源有效情况&lt;/p&gt;&lt;/div&gt;&lt;/div&gt;&lt;/div&gt;" style="ellipse;whiteSpace=wrap;html=1;fontFamily=Helvetica;" vertex="1" parent="1">
          <mxGeometry x="130" y="470" width="94" height="62.67" as="geometry" />
        </mxCell>
        <mxCell id="RUnobG6nn0BxNbAFJMlj-20" value="&lt;div style=&quot;line-height: 1.3; vertical-align: middle; color: rgb(25, 25, 26); font-size: 14px;&quot;&gt;&lt;div style=&quot;line-height: 1.3; vertical-align: middle;&quot;&gt;&lt;div style=&quot;line-height: 1.3; vertical-align: middle;&quot;&gt;&lt;p&gt;保存近期搜索记录&lt;/p&gt;&lt;/div&gt;&lt;/div&gt;&lt;/div&gt;" style="ellipse;whiteSpace=wrap;html=1;fontFamily=Helvetica;" vertex="1" parent="1">
          <mxGeometry x="160" y="360" width="94" height="62.67" as="geometry" />
        </mxCell>
        <mxCell id="RUnobG6nn0BxNbAFJMlj-21" value="&lt;div style=&quot;line-height: 1.3; vertical-align: middle; color: rgb(25, 25, 26); font-size: 14px;&quot;&gt;&lt;div style=&quot;line-height: 1.3; vertical-align: middle;&quot;&gt;&lt;div style=&quot;line-height: 1.3; vertical-align: middle;&quot;&gt;&lt;p&gt;搜搜结果按条件排序&lt;/p&gt;&lt;/div&gt;&lt;/div&gt;&lt;/div&gt;" style="ellipse;whiteSpace=wrap;html=1;fontFamily=Helvetica;" vertex="1" parent="1">
          <mxGeometry x="160" y="580" width="94" height="62.67" as="geometry" />
        </mxCell>
        <mxCell id="RUnobG6nn0BxNbAFJMlj-23" value="&amp;lt;&amp;lt;extend&amp;gt;&amp;gt;" style="html=1;verticalAlign=bottom;labelBackgroundColor=none;endArrow=open;endFill=0;dashed=1;rounded=0;" edge="1" parent="1" source="RUnobG6nn0BxNbAFJMlj-20" target="RUnobG6nn0BxNbAFJMlj-15">
          <mxGeometry x="0.124" y="13" width="160" relative="1" as="geometry">
            <mxPoint x="420" y="510" as="sourcePoint" />
            <mxPoint x="580" y="510" as="targetPoint" />
            <mxPoint x="-1" as="offset" />
          </mxGeometry>
        </mxCell>
        <mxCell id="RUnobG6nn0BxNbAFJMlj-25" value="&amp;lt;&amp;lt;extend&amp;gt;&amp;gt;" style="html=1;verticalAlign=bottom;labelBackgroundColor=none;endArrow=open;endFill=0;dashed=1;rounded=0;entryX=0;entryY=0.5;entryDx=0;entryDy=0;exitX=1;exitY=0.5;exitDx=0;exitDy=0;" edge="1" parent="1" source="RUnobG6nn0BxNbAFJMlj-19" target="RUnobG6nn0BxNbAFJMlj-15">
          <mxGeometry width="160" relative="1" as="geometry">
            <mxPoint x="260" y="500" as="sourcePoint" />
            <mxPoint x="580" y="510" as="targetPoint" />
          </mxGeometry>
        </mxCell>
        <mxCell id="RUnobG6nn0BxNbAFJMlj-27" value="&amp;lt;&amp;lt;extend&amp;gt;&amp;gt;" style="html=1;verticalAlign=bottom;labelBackgroundColor=none;endArrow=open;endFill=0;dashed=1;rounded=0;exitX=1;exitY=0;exitDx=0;exitDy=0;" edge="1" parent="1" source="RUnobG6nn0BxNbAFJMlj-21" target="RUnobG6nn0BxNbAFJMlj-15">
          <mxGeometry x="-0.282" y="7" width="160" relative="1" as="geometry">
            <mxPoint x="420" y="510" as="sourcePoint" />
            <mxPoint x="580" y="510" as="targetPoint" />
            <mxPoint as="offset" />
          </mxGeometry>
        </mxCell>
        <mxCell id="RUnobG6nn0BxNbAFJMlj-28" value="&lt;div style=&quot;line-height: 1.3; vertical-align: middle; color: rgb(25, 25, 26); font-size: 14px;&quot;&gt;&lt;div style=&quot;line-height: 1.3; vertical-align: middle;&quot;&gt;&lt;div style=&quot;line-height: 1.3; vertical-align: middle;&quot;&gt;&lt;div style=&quot;line-height: 1.3; vertical-align: middle;&quot;&gt;&lt;p&gt;关键字直接匹配搜索&lt;/p&gt;&lt;/div&gt;&lt;/div&gt;&lt;/div&gt;&lt;/div&gt;" style="ellipse;whiteSpace=wrap;html=1;fontFamily=Helvetica;" vertex="1" parent="1">
          <mxGeometry x="320" y="620" width="94" height="62.67" as="geometry" />
        </mxCell>
        <mxCell id="RUnobG6nn0BxNbAFJMlj-29" value="&lt;div style=&quot;line-height: 1.3; vertical-align: middle; color: rgb(25, 25, 26);&quot;&gt;&lt;div style=&quot;line-height: 1.3; vertical-align: middle;&quot;&gt;&lt;div style=&quot;line-height: 1.3; vertical-align: middle;&quot;&gt;&lt;div style=&quot;line-height: 1.3; vertical-align: middle;&quot;&gt;&lt;p style=&quot;&quot;&gt;&lt;font style=&quot;font-size: 10px; line-height: 90%;&quot;&gt;使用默认LLM api进行AI聚合搜索&lt;/font&gt;&lt;/p&gt;&lt;/div&gt;&lt;/div&gt;&lt;/div&gt;&lt;/div&gt;" style="ellipse;whiteSpace=wrap;html=1;fontFamily=Helvetica;" vertex="1" parent="1">
          <mxGeometry x="500" y="615" width="109" height="72.67" as="geometry" />
        </mxCell>
        <mxCell id="RUnobG6nn0BxNbAFJMlj-30" value="" style="endArrow=block;endFill=0;html=1;rounded=0;entryX=0.5;entryY=1;entryDx=0;entryDy=0;exitX=0.5;exitY=0;exitDx=0;exitDy=0;" edge="1" parent="1" source="RUnobG6nn0BxNbAFJMlj-28" target="RUnobG6nn0BxNbAFJMlj-15">
          <mxGeometry width="160" relative="1" as="geometry">
            <mxPoint x="367" y="610" as="sourcePoint" />
            <mxPoint x="520" y="400" as="targetPoint" />
          </mxGeometry>
        </mxCell>
        <mxCell id="RUnobG6nn0BxNbAFJMlj-31" value="" style="endArrow=block;endFill=0;html=1;rounded=0;entryX=0.881;entryY=0.763;entryDx=0;entryDy=0;entryPerimeter=0;exitX=0.239;exitY=0.065;exitDx=0;exitDy=0;exitPerimeter=0;" edge="1" parent="1" source="RUnobG6nn0BxNbAFJMlj-29" target="RUnobG6nn0BxNbAFJMlj-15">
          <mxGeometry width="160" relative="1" as="geometry">
            <mxPoint x="510" y="630" as="sourcePoint" />
            <mxPoint x="420" y="520" as="targetPoint" />
          </mxGeometry>
        </mxCell>
        <mxCell id="RUnobG6nn0BxNbAFJMlj-33" value="&amp;lt;&amp;lt;include&amp;gt;&amp;gt;" style="html=1;verticalAlign=bottom;labelBackgroundColor=none;endArrow=open;endFill=0;dashed=1;rounded=0;exitX=1;exitY=0.5;exitDx=0;exitDy=0;entryX=0;entryY=0.5;entryDx=0;entryDy=0;" edge="1" parent="1" source="RUnobG6nn0BxNbAFJMlj-28" target="RUnobG6nn0BxNbAFJMlj-29">
          <mxGeometry width="160" relative="1" as="geometry">
            <mxPoint x="470" y="640" as="sourcePoint" />
            <mxPoint x="630" y="640" as="targetPoint" />
          </mxGeometry>
        </mxCell>
        <mxCell id="RUnobG6nn0BxNbAFJMlj-36" value="&lt;div style=&quot;line-height: 1.3; vertical-align: middle; color: rgb(25, 25, 26); font-size: 14px;&quot;&gt;&lt;div style=&quot;line-height: 1.3; vertical-align: middle;&quot;&gt;&lt;div style=&quot;line-height: 1.3; vertical-align: middle;&quot;&gt;&lt;div style=&quot;line-height: 1.3; vertical-align: middle;&quot;&gt;&lt;div style=&quot;line-height: 1.3; font-family: &amp;quot;Source Han Sans CN&amp;quot;; vertical-align: middle;&quot;&gt;&lt;p&gt;使用自定义LLM api&lt;/p&gt;&lt;/div&gt;&lt;/div&gt;&lt;/div&gt;&lt;/div&gt;&lt;/div&gt;" style="ellipse;whiteSpace=wrap;html=1;fontFamily=Helvetica;" vertex="1" parent="1">
          <mxGeometry x="507.5" y="760" width="94" height="62.67" as="geometry" />
        </mxCell>
        <mxCell id="RUnobG6nn0BxNbAFJMlj-38" value="&amp;lt;&amp;lt;extend&amp;gt;&amp;gt;" style="html=1;verticalAlign=bottom;labelBackgroundColor=none;endArrow=open;endFill=0;dashed=1;rounded=0;exitX=0.5;exitY=0;exitDx=0;exitDy=0;" edge="1" parent="1" source="RUnobG6nn0BxNbAFJMlj-36">
          <mxGeometry width="160" relative="1" as="geometry">
            <mxPoint x="420" y="700" as="sourcePoint" />
            <mxPoint x="555" y="690" as="targetPoint" />
          </mxGeometry>
        </mxCell>
      </root>
    </mxGraphModel>
  </diagram>
</mxfile>
